<svg xmlns="http://www.w3.org/2000/svg" xml:space="preserve" style="enable-background:new 0 0 83.9 78" viewBox="0 0 83.9 78"><path d="m3 12.5 6.7-.6 9.4 1.8 8.2 4.1 3.2 4.1 26-5h6.2L79.2 2.3l3.3.6-8.2 24.5 6.3 4.9-.4 10.3L75 55.7l-8 9.8-13.3 4-20.8-.4-3.2 5.8-4.3-9.5-14.3-10.8L6 47.7l-.1-6.6 5.2-7.8z" style="fill:#fff"/><path d="M53.6 24.9c.4-.1.9-.4 1.3-.4 1.8.1 3.7.4 5.5.3 2.8-.1 5.5.3 8.2 1.1 1.4.4 2.7.7 4.1 1.1 1.1.3 1.3-.1 1.2-1.2 0-.9.1-1.9.4-2.7 1.5-4.4 3.2-8.8 4.8-13.1.5-1.4 1-2.8 1.4-4.2.1-.3 0-1-.3-1.1-.3-.2-.9-.2-1.3 0-.9.5-1.7 1.1-2.6 1.6l-2.1 1.2c-.2.2-.4.4-.6.7-.5.7-.9 1.6-1.5 2.2-1.6 1.8-3.4 3.4-5 5.2-.6.6-.9 1.3-1.4 2.1-.5.8-2.1 1.3-3.2 1-2.9-.8-5.8-1-8.8-.4-4.1.8-8.3 1.5-12.5 2.3-.9.2-1.8.6-2.8.8-1.8.4-3.5.7-5.3 1-.6.1-1.1.4-1.6.5-1.7.6-3 .2-3.6-1.4-1.2-3-3.5-4.7-6.4-5.9-3.6-1.4-7.2-2.3-11.1-2.2-1.4.1-2.9-.2-4.3-.2-.4 0-.9 0-1.2.3-.3.2-.6.8-.4 1.1.6 1.7 1.3 3.4 1.9 5 .6 1.5 1.1 3 1.7 4.4.3.7.8 1.4 1.3 2 1.4 1.6 1 3.5 1.1 5.3l-.3.3c-.4-.4-1.1-.7-1.3-1.2-1.4-3-2.9-6.1-4.2-9.2-.6-1.5-1-3.2-1.5-4.7-.3-1.4-1-2.5-2.2-3.3-.4-.2-.7-.7-.9-1.1-.4-.8.2-1.5 1.1-1.5 1.3.1 2.6 0 3.9 0h.1c1.7.7 3.4-.1 5 .2 4.2.9 8.5 1.3 12.6 3.1 3.1 1.4 5.7 3.2 7.8 5.8.6.7 1.3.8 2.2.6 3.3-.7 6.4-2 9.8-2.1 1.8-.1 3.6-.7 5.4-1 2.2-.4 4.5-.8 6.7-1 2.7-.3 5.4-.2 8.1-.5.7-.1 1.4-.6 1.9-1.2 2.1-2.3 4.1-4.7 6.9-6.3 1.4-.9 2.4-2.3 3.5-3.5.3-.3.6-.8 1-1.1 1-.8 2-1.5 3.1-2.2.8-.5 1.7-1 2.6-1.4.2-.1.7 0 .9.1 1 .7 1.4 2.3 1.1 3.4-.4 1.2-.7 2.5-1.1 3.7-.3.9-.7 1.6-1.1 2.5-1.3 3.1-2.7 6.3-4 9.5-.6 1.6-1.2 3.2-1.6 4.8-.3 1.4-.1 3.2 1.7 4.2 1.1.6 2.2 1.4 3.1 2.3 1.6 1.6 1.9 3.6 1.4 5.8-.4 1.5-.4 3.1-.6 4.7-.2 2.5-.9 4.9-1.9 7.3-.7 1.7-1.2 3.5-2.1 5.1-1.4 2.6-2.9 5.2-4.4 7.7-.3.4-.9.6-1.2 1-.4.5-1 .9-1.1 1.5-.3 1.3-.4 2.6-.6 4-.1.6-.2 1.3-.5 1.7-.4.6-1.1 1.4-1.6 1.3-.7-.1-1.6-.8-2-1.4-.9-1.5-1.1-1.7-2.8-1.2-2.1.7-4.1 1.4-6.2 2-1.3.4-2.8.6-4.1.8-3.5.6-7.1 0-10.7 0-2.4 0-4.8-.3-7.2-.4-1.1-.1-1.7.4-2 1.5-.5 1.7-1.2 3.4-1.9 5-.3.7-1.6 1.3-2.3 1.1-1-.3-1.5-1-1.6-2.1-.4-2.4-1-4.7-1.7-7-.3-.9-1.1-1.8-1.9-2.2-3.9-2.4-7.3-5.2-10.5-8.4-1.4-1.4-3.1-2.5-4.4-3.8-1.9-2-3.8-4-3.8-7.1 0-.5-.2-1-.2-1.5 0-1 0-2.1.1-3.1.1-.9.5-1.7.7-2.6.6-2.5 2.2-4.4 3.5-6.5.6-.9 1.6-1.2 2.7-1 .2 0 .5.3.6.5.1.2-.1.5-.3.6-2.6 1.8-3.5 4.7-4.6 7.4-1.6 4-.3 7.6 2.4 10.5 2.2 2.3 4.7 4.2 7.2 6.3 1.4 1.2 2.2.9 3.7-.2 1.1-.8 2.4-1.5 3.7-1.9 1.4-.5 2.8-1.3 4.5-1 .3 0 .7-.3 1.1-.4.4-.1.9-.4 1.3-.3 1.7.4 3.2-.4 4.8-.7 1.3-.2 2.5-.8 3.8-1.1 1.6-.4 1.8-.9 1.5-2.6-.2-1.3 0-2.7.1-4 .1-.9.9-1.2 1.5-1 .4.1.8.8 1 1.4.1.4 0 .9-.1 1.3-.4 1.2 0 2.2.8 3.1.7.8 1.7.8 2.7.5.8-.2 1.1-.7 1.2-1.5 0-1-.1-2 .1-3 .1-1 .5-2 .8-2.9.1-.3.7-.4 1.1-.6.1.4.2.8.2 1.1 0 2-.1 4-.1 6 0 .7.6.9 1.3.9h4.2c2.6.1 5.1.3 7.7.4 1.9 0 3.8-.3 5.6-.2 1.3.1 3.1-.2 3.6 1.9.1.3.6.8.9.8.3 0 .7-.5.8-.9 1.1-2.3 2.3-4.5 3.2-6.8.7-2 .8-4.2 1.2-6.4.2-1.5.3-3 .6-4.4.3-1.3.1-2.5-1-3.3-1.2-.9-2.6-1.8-4-2.4-1.7-.7-3.5-1-5.3-1.4-1-.2-1.9.2-2.2 1.1-.4.9-.6 1.8-.7 2.8-.1 1.7-1 3-1.8 4.4-1.2 1.9-2.5 3.7-4.6 4.4-1.5.5-3 1.2-4.7.3-1-.5-2.2-.7-3.1-1.6-2.2-2.3-2.2-5.1 0-7.5 1-1.1 2.2-2 3.6-2.6 1-.4 2-1 3-1.6.3-.2.7-.6.7-.9s-.5-.7-.8-.7c-1-.2-1.9-.1-2.9-.3-.8-.1-1.6-.3-2.4-.5-.2-.5-.2-.6-.2-.8zM27.8 63.1c-.1 0-.2 0-.3.1.2.6.3 1.5.7 1.8.8.6 1.7 1.1 2.6 1.4.8.3 1.5-.5 1.7-1.3.5-1.8 1-3.6 1.7-5.3.5-1.3 2.1-1.4 3-.2.2.3.3.6.5 1 .5.8 1.1 1 1.9.5.7-.5 1.4-1.1 2.1-1.6 1.4-1.1 2.8-.9 3.6.6 1.1 2.3 2.4 2.4 4.2.4.2-.2.4-.5.5-.7 1.5-2.3 3-2.7 5.5-1.5 1.6.8 2.7 1.2 3.9-.9.6-1.2 1.4-1.2 2.7-.4.5.3 1 .7 1.5.6 1.6 0 3.1.2 4.2 1.5.6.6 1.2.3 1.4-.6.1-.6.2-1.1.3-1.7.3-1.3-.3-2.3-1.6-2.4-2.2-.1-4.4 0-6.7-.1-.3 0-.6-.1-1-.2-1.8-.2-3.5-.4-5.3-.4-2.3 0-4.7.1-7 .2-.2 0-.3-.1-.5-.2-.9 0-1.8-.2-2.7 0-3.5.8-6.9 1.8-10.4 2.7-2 .5-4 .9-6.1 1.1-2.6.3-4.8 1.8-7.1 2.9-.2.1-.5 1-.3 1 .8.6 1.5 1.4 2.4 1.6.8.2.8-.9 1.1-1.5 0-.1.1-.2.1-.3.7-1.3 2.1-1.5 2.8-.3.6.6.4 1.5.6 2.2zm20 5.4c2.4-.2 5.5-.4 8.5-.6.2 0 .5-.1.7-.2 2.2-.8 4.4-1.7 6.6-2.4 1.1-.4 1.4-1.3 1.5-2.3.1-1-.4-1.7-1.3-2.1-.5-.2-1.1-.4-1.7-.5-1.5-.4-1.9-.3-2.8 1-.5.7-1.2 1.1-2 .8-.7-.2-1.4-.4-2-.8-2-1.2-3-.8-4.3 1.1-.6.9-1.6 1.6-2.5 2.2-1.6 1-3 0-4.2-.8-1.6-1.1-3.1-1-4.6.1-.3.2-1 .2-1.5.1-.4 0-.8-.2-1.3-.3-1.3-.1-2.2.5-2.2 1.5 0 1.2.5 2.4 2 2.5 3.6.3 7 .5 11.1.7zm15-40.5c-.6.2-1.2.4-1.7.6-.9.4-1.5 1-.9 2.2.2.3.1.8 0 1.1-.2.9-.7.9-1.4.3-.5-.4-1.4-.7-2-.5-.9.2-1.8.8-2.4 1.4-1.3 1.3-1 2.9.4 4 .5.4 1.1.7 1.6 1.1.8.8 1.7.9 2.6.3.7-.4 1.3-.9 1.9-1.4 2-1.7 2.5-4.2 3.6-6.5.9-1.2-.1-2.5-1.7-2.6zM29.9 71.1c.3-.3.7-.7.6-.7-.2-.3-.5-.7-.9-.9-.1-.1-.4.3-.6.4.2.4.5.7.9 1.2z"/><path d="M30.7 31.3c2.4-.2 4.5 2 4.8 4.4.1.7.2 1.4.3 2.2 0 .3 0 .7-.2.9-.7 1.2-1.4 2.5-2.3 3.6-.7.8-1.6 1.4-2.4 2.1-.1.1-.4.2-.5.3-1.7 2.1-3.9 1.7-6 1.2-1.9-.5-3.9-3.3-3.6-5.1.1-.9.7-1.7 1.2-2.5.7-1.1 1.4-2.2 2.3-3 1.1-1.1 2.4-2 3.6-2.9.8-.6 1.8-.9 2.8-1.3v.1zm-4.2 10.6c.5-.1 1.1-.2 1.6-.3.9-.2 1.9-.4 2.8-.7.5-.2 1.1-.3 1.5-.6 1.6-1.6 1.6-4.6 0-6.2-.7-.8-1.7-.9-2.6-.6-.4.1-.5 1-.9 1.4-.4.4-.8 1-1.3 1.1-1 .3-1.6.7-2 1.6-.2.6-.5 1.1-.7 1.7-.8 1.8-.3 2.5 1.6 2.6z"/></svg>